<mxfile host="app.diagrams.net" modified="2023-04-03T09:45:34.105Z" agent="Mozilla/5.0 (Windows NT 10.0; Win64; x64) AppleWebKit/537.36 (KHTML, like Gecko) Chrome/111.0.0.0 Safari/537.36" version="21.1.4" etag="8di2dWz2MXf0F943icE3" type="github">
  <diagram name="第 1 页" id="pDw50lKqcA2GNYHeys9O">
    <mxGraphModel>
      <root>
        <mxCell id="0" />
        <mxCell id="1" parent="0" />
      </root>
    </mxGraphModel>
  </diagram>
</mxfile>
